<svg width="24" height="24" viewBox="0 0 24 24" fill="none" xmlns="http://www.w3.org/2000/svg">
<path d="M10.1538 14.7692C9.97134 14.7691 9.79296 14.715 9.64124 14.6135C9.48952 14.5121 9.37127 14.368 9.30144 14.1993C9.23161 14.0307 9.21333 13.8452 9.24891 13.6662C9.28449 13.4872 9.37234 13.3227 9.50135 13.1937L18.6133 4.08173C18.1417 3.82569 17.6135 3.69181 17.0769 3.69231H3.23077C2.3742 3.69322 1.55297 4.0339 0.947282 4.63959C0.341594 5.24528 0.000916284 6.0665 0 6.92308V20.7692C0.000916284 21.6258 0.341594 22.447 0.947282 23.0527C1.55297 23.6584 2.3742 23.9991 3.23077 24H17.0769C17.9335 23.9991 18.7547 23.6584 19.3604 23.0527C19.9661 22.447 20.3068 21.6258 20.3077 20.7692V6.92308C20.3082 6.38648 20.1743 5.8583 19.9183 5.38673L10.8063 14.4987C10.7208 14.5846 10.6191 14.6527 10.5071 14.6992C10.3952 14.7456 10.2751 14.7694 10.1538 14.7692Z" fill="white"/>
<path d="M23.0769 0H16.6154C16.3706 0 16.1358 0.0972524 15.9627 0.270363C15.7896 0.443473 15.6923 0.678262 15.6923 0.923077C15.6923 1.16789 15.7896 1.40268 15.9627 1.57579C16.1358 1.7489 16.3706 1.84615 16.6154 1.84615H20.8483L18.6133 4.08173C19.1652 4.38153 19.6185 4.8348 19.9183 5.38673L22.1538 3.15173V7.38462C22.1538 7.62943 22.2511 7.86422 22.4242 8.03733C22.5973 8.21044 22.8321 8.30769 23.0769 8.30769C23.3217 8.30769 23.5565 8.21044 23.7296 8.03733C23.9027 7.86422 24 7.62943 24 7.38462V0.923077C24 0.678262 23.9027 0.443473 23.7296 0.270363C23.5565 0.0972524 23.3217 0 23.0769 0Z" fill="white"/>
</svg>
