<svg width="24" height="24" viewBox="0 0 24 24" fill="none" xmlns="http://www.w3.org/2000/svg">
<path d="M15.5925 3.02719C14.6803 2.04234 13.4063 1.5 12 1.5C10.5863 1.5 9.30798 2.03906 8.40001 3.01781C7.4822 4.00734 7.03501 5.35219 7.14001 6.80438C7.34814 9.66938 9.5283 12 12 12C14.4717 12 16.6481 9.66984 16.8595 6.80531C16.966 5.36625 16.516 4.02422 15.5925 3.02719Z" fill="white"/>
<path d="M20.25 22.5H3.75002C3.53405 22.5028 3.32017 22.4574 3.12394 22.3672C2.92772 22.2769 2.75407 22.1441 2.61565 21.9783C2.31096 21.6141 2.18815 21.1167 2.27909 20.6137C2.67471 18.4191 3.9094 16.5755 5.85002 15.2812C7.57409 14.1323 9.75799 13.5 12 13.5C14.2421 13.5 16.426 14.1328 18.15 15.2812C20.0906 16.575 21.3253 18.4186 21.721 20.6133C21.8119 21.1162 21.6891 21.6136 21.3844 21.9778C21.246 22.1437 21.0724 22.2766 20.8762 22.367C20.6799 22.4573 20.466 22.5028 20.25 22.5Z" fill="white"/>
</svg>
