<svg width="21" height="24" viewBox="0 0 21 24" fill="none" xmlns="http://www.w3.org/2000/svg">
<path d="M2.41042 24C2.01 23.9993 1.61667 23.8943 1.26912 23.6954C0.486519 23.252 0 22.3911 0 21.4565V2.54358C0 1.60641 0.486519 0.748155 1.26912 0.304679C1.62495 0.100182 2.02918 -0.0049813 2.43955 0.000181328C2.84992 0.00534396 3.25137 0.120643 3.60194 0.334027L19.766 10.0096C20.1029 10.2209 20.3806 10.5142 20.5731 10.8621C20.7656 11.21 20.8666 11.6011 20.8666 11.9988C20.8666 12.3964 20.7656 12.7875 20.5731 13.1354C20.3806 13.4833 20.1029 13.7766 19.766 13.9879L3.59933 23.6661C3.24057 23.883 2.82965 23.9984 2.41042 24Z" fill="white"/>
</svg>
