<svg width="413" height="74" viewBox="0 0 413 74" fill="none" xmlns="http://www.w3.org/2000/svg">
<g filter="url(#filter0_b)">
<path d="M0.977778 71V52.4716L31.2593 20.2543H1.80741V2.27901H58.084V19.563L26.4198 52.8864H58.637V71H0.977778ZM103.765 53.716C105.793 53.716 107.729 53.3934 109.573 52.7481C111.416 52.0107 113.03 50.9506 114.412 49.5679C115.887 48.093 117.04 46.2955 117.869 44.1753C118.791 42.0551 119.252 39.5202 119.252 36.5704C119.252 33.7128 118.791 31.2239 117.869 29.1037C117.04 26.8914 115.887 25.0938 114.412 23.7111C113.03 22.3284 111.416 21.3144 109.573 20.6691C107.729 19.9317 105.793 19.563 103.765 19.563C101.83 19.563 99.8938 19.9317 97.958 20.6691C96.1144 21.3144 94.4551 22.3284 92.9803 23.7111C91.5975 25.0938 90.4453 26.8914 89.5235 29.1037C88.6938 31.2239 88.279 33.7128 88.279 36.5704C88.279 39.428 88.6938 41.963 89.5235 44.1753C90.4453 46.2955 91.5975 48.093 92.9803 49.5679C94.4551 50.9506 96.1144 52.0107 97.958 52.7481C99.8938 53.3934 101.83 53.716 103.765 53.716ZM103.765 0.204934C108.928 0.204934 113.721 1.12675 118.146 2.97037C122.57 4.72181 126.396 7.2107 129.622 10.437C132.941 13.6634 135.522 17.4889 137.365 21.9136C139.301 26.3383 140.269 31.2239 140.269 36.5704C140.269 41.9169 139.301 46.8486 137.365 51.3654C135.522 55.7901 132.941 59.6156 129.622 62.842C126.396 66.0683 122.57 68.6033 118.146 70.4469C113.721 72.1984 108.928 73.0741 103.765 73.0741C98.6033 73.0741 93.8099 72.1984 89.3852 70.4469C84.9605 68.6033 81.0889 66.0683 77.7704 62.842C74.544 59.6156 71.963 55.7901 70.0272 51.3654C68.1835 46.8486 67.2617 41.9169 67.2617 36.5704C67.2617 31.2239 68.1835 26.3383 70.0272 21.9136C71.963 17.4889 74.544 13.6634 77.7704 10.437C81.0889 7.2107 84.9605 4.72181 89.3852 2.97037C93.8099 1.12675 98.6033 0.204934 103.765 0.204934ZM185.324 53.716C187.352 53.716 189.288 53.3934 191.131 52.7481C192.975 52.0107 194.588 50.9506 195.971 49.5679C197.446 48.093 198.598 46.2955 199.428 44.1753C200.35 42.0551 200.81 39.5202 200.81 36.5704C200.81 33.7128 200.35 31.2239 199.428 29.1037C198.598 26.8914 197.446 25.0938 195.971 23.7111C194.588 22.3284 192.975 21.3144 191.131 20.6691C189.288 19.9317 187.352 19.563 185.324 19.563C183.388 19.563 181.452 19.9317 179.517 20.6691C177.673 21.3144 176.014 22.3284 174.539 23.7111C173.156 25.0938 172.004 26.8914 171.082 29.1037C170.252 31.2239 169.838 33.7128 169.838 36.5704C169.838 39.428 170.252 41.963 171.082 44.1753C172.004 46.2955 173.156 48.093 174.539 49.5679C176.014 50.9506 177.673 52.0107 179.517 52.7481C181.452 53.3934 183.388 53.716 185.324 53.716ZM185.324 0.204934C190.486 0.204934 195.28 1.12675 199.704 2.97037C204.129 4.72181 207.955 7.2107 211.181 10.437C214.499 13.6634 217.08 17.4889 218.924 21.9136C220.86 26.3383 221.828 31.2239 221.828 36.5704C221.828 41.9169 220.86 46.8486 218.924 51.3654C217.08 55.7901 214.499 59.6156 211.181 62.842C207.955 66.0683 204.129 68.6033 199.704 70.4469C195.28 72.1984 190.486 73.0741 185.324 73.0741C180.162 73.0741 175.369 72.1984 170.944 70.4469C166.519 68.6033 162.648 66.0683 159.329 62.842C156.103 59.6156 153.522 55.7901 151.586 51.3654C149.742 46.8486 148.82 41.9169 148.82 36.5704C148.82 31.2239 149.742 26.3383 151.586 21.9136C153.522 17.4889 156.103 13.6634 159.329 10.437C162.648 7.2107 166.519 4.72181 170.944 2.97037C175.369 1.12675 180.162 0.204934 185.324 0.204934ZM274.813 71H253.657L225.45 2.27901H248.265L264.166 45.0049L278.823 2.27901H300.946L274.813 71ZM353.041 28.4123C352.949 27.1218 352.626 25.7852 352.073 24.4025C351.612 23.0197 350.829 21.7753 349.723 20.6691C348.616 19.563 347.188 18.6411 345.436 17.9037C343.777 17.1663 341.703 16.7975 339.214 16.7975C337.002 16.7975 335.066 17.1663 333.406 17.9037C331.747 18.6411 330.318 19.563 329.12 20.6691C328.014 21.7753 327.138 23.0197 326.493 24.4025C325.94 25.7852 325.617 27.1218 325.525 28.4123H353.041ZM372.123 51.2272C371.293 54.177 370.002 56.9885 368.251 59.6617C366.499 62.335 364.287 64.6856 361.614 66.7136C358.941 68.6494 355.806 70.1704 352.211 71.2765C348.709 72.4749 344.791 73.0741 340.458 73.0741C335.757 73.0741 331.24 72.2444 326.908 70.5852C322.575 68.9259 318.75 66.5292 315.431 63.3951C312.113 60.2609 309.485 56.4354 307.55 51.9185C305.614 47.4016 304.646 42.2395 304.646 36.4321C304.646 30.9012 305.568 25.9235 307.411 21.4988C309.347 16.9819 311.882 13.1564 315.016 10.0222C318.243 6.88806 321.93 4.49135 326.078 2.83209C330.226 1.08065 334.513 0.204934 338.937 0.204934C349.63 0.204934 358.019 3.293 364.103 9.46913C370.279 15.6453 373.367 24.3103 373.367 35.4642C373.367 36.9391 373.321 38.3679 373.229 39.7506C373.137 41.0412 373.044 41.7786 372.952 41.963H325.11C325.202 43.8988 325.663 45.6963 326.493 47.3556C327.415 48.9226 328.567 50.3053 329.95 51.5037C331.425 52.7021 333.084 53.6239 334.927 54.2691C336.771 54.9144 338.707 55.237 340.735 55.237C344.606 55.237 347.602 54.4074 349.723 52.7481C351.935 51.0889 353.548 48.9226 354.562 46.2494L372.123 51.2272ZM384.546 58.0025C384.546 56.0667 384.915 54.2691 385.653 52.6099C386.39 50.8584 387.404 49.3374 388.695 48.0469C389.985 46.7564 391.46 45.7424 393.119 45.0049C394.871 44.2675 396.714 43.8988 398.65 43.8988C400.586 43.8988 402.383 44.2675 404.043 45.0049C405.794 45.7424 407.315 46.7564 408.606 48.0469C409.988 49.3374 411.049 50.8584 411.786 52.6099C412.523 54.2691 412.892 56.0667 412.892 58.0025C412.892 59.9383 412.523 61.7819 411.786 63.5333C411.049 65.1926 409.988 66.6675 408.606 67.958C407.315 69.2486 405.794 70.2626 404.043 71C402.383 71.8296 400.586 72.2444 398.65 72.2444C396.714 72.2444 394.871 71.8296 393.119 71C391.46 70.2626 389.985 69.2486 388.695 67.958C387.404 66.6675 386.39 65.1926 385.653 63.5333C384.915 61.7819 384.546 59.9383 384.546 58.0025Z" fill="url(#paint0_linear)"/>
</g>
<defs>
<filter id="filter0_b" x="-69.0222" y="-69.7951" width="551.914" height="212.869" filterUnits="userSpaceOnUse" color-interpolation-filters="sRGB">
<feFlood flood-opacity="0" result="BackgroundImageFix"/>
<feGaussianBlur in="BackgroundImage" stdDeviation="35"/>
<feComposite in2="SourceAlpha" operator="in" result="effect1_backgroundBlur"/>
<feBlend mode="normal" in="SourceGraphic" in2="effect1_backgroundBlur" result="shape"/>
</filter>
<linearGradient id="paint0_linear" x1="5.5" y1="20" x2="409.769" y2="36.6156" gradientUnits="userSpaceOnUse">
<stop stop-color="#4158D0"/>
<stop offset="0.0001" stop-color="#4558D0"/>
<stop offset="0.520833" stop-color="#C850C0"/>
<stop offset="1" stop-color="#FFCC70"/>
</linearGradient>
</defs>
</svg>
