<svg width="24" height="24" viewBox="0 0 24 24" fill="none" xmlns="http://www.w3.org/2000/svg">
<path d="M24 12C24 5.37288 18.6271 0 12 0C5.37288 0 0 5.37288 0 12C0 18.6271 5.37288 24 12 24C18.6271 24 24 18.6271 24 12ZM18.191 10.3448L12.6525 15.8833C12.4794 16.0562 12.2447 16.1534 12 16.1534C11.7553 16.1534 11.5206 16.0562 11.3475 15.8833L5.80904 10.3448C5.64324 10.1703 5.55217 9.9379 5.55525 9.6972C5.55833 9.4565 5.65532 9.22652 5.82554 9.0563C5.99575 8.88609 6.22573 8.7891 6.46643 8.78602C6.70714 8.78294 6.93952 8.874 7.11404 9.03981L12 13.9252L16.886 9.03981C17.0605 8.874 17.2929 8.78294 17.5336 8.78602C17.7743 8.7891 18.0042 8.88609 18.1745 9.0563C18.3447 9.22652 18.4417 9.4565 18.4448 9.6972C18.4478 9.9379 18.3568 10.1703 18.191 10.3448Z" fill="white"/>
</svg>
