<svg width="24" height="24" viewBox="0 0 24 24" fill="none" xmlns="http://www.w3.org/2000/svg">
<path d="M20.1429 24H8.14286C7.11988 24 6.1388 23.5936 5.41545 22.8703C4.69209 22.1469 4.28571 21.1658 4.28571 20.1429V8.14286C4.28571 7.11988 4.69209 6.1388 5.41545 5.41545C6.1388 4.69209 7.11988 4.28571 8.14286 4.28571H20.1429C21.1658 4.28571 22.1469 4.69209 22.8703 5.41545C23.5936 6.1388 24 7.11988 24 8.14286V20.1429C24 21.1658 23.5936 22.1469 22.8703 22.8703C22.1469 23.5936 21.1658 24 20.1429 24Z" fill="white"/>
<path d="M6.85714 2.57143H19.4936C19.2269 1.81995 18.7342 1.1694 18.0832 0.709011C17.4321 0.248625 16.6545 0.000962683 15.8571 0H3.85714C2.83417 0 1.85309 0.406376 1.12973 1.12973C0.406376 1.85309 0 2.83417 0 3.85714V15.8571C0.000962683 16.6545 0.248625 17.4321 0.709011 18.0832C1.1694 18.7342 1.81995 19.2269 2.57143 19.4936V6.85714C2.57143 5.7205 3.02296 4.63041 3.82669 3.82669C4.63041 3.02296 5.7205 2.57143 6.85714 2.57143Z" fill="white"/>
</svg>
