<svg width="27" height="26" viewBox="0 0 27 26" fill="none" xmlns="http://www.w3.org/2000/svg">
<path d="M13.8667 14.625C14.7642 14.625 15.4917 13.8975 15.4917 13C15.4917 12.1025 14.7642 11.375 13.8667 11.375C12.9692 11.375 12.2417 12.1025 12.2417 13C12.2417 13.8975 12.9692 14.625 13.8667 14.625Z" fill="white"/>
<path d="M19.4917 14.625C20.3892 14.625 21.1167 13.8975 21.1167 13C21.1167 12.1025 20.3892 11.375 19.4917 11.375C18.5942 11.375 17.8667 12.1025 17.8667 13C17.8667 13.8975 18.5942 14.625 19.4917 14.625Z" fill="white"/>
<path d="M8.2417 14.625C9.13916 14.625 9.8667 13.8975 9.8667 13C9.8667 12.1025 9.13916 11.375 8.2417 11.375C7.34424 11.375 6.6167 12.1025 6.6167 13C6.6167 13.8975 7.34424 14.625 8.2417 14.625Z" fill="white"/>
<path d="M25.8667 13C25.8667 6.375 20.4917 1 13.8667 1C7.2417 1 1.8667 6.375 1.8667 13C1.8667 19.625 7.2417 25 13.8667 25C20.4917 25 25.8667 19.625 25.8667 13Z" fill="white"/>
<path d="M13.8667 14.625C14.7642 14.625 15.4917 13.8975 15.4917 13C15.4917 12.1025 14.7642 11.375 13.8667 11.375C12.9692 11.375 12.2417 12.1025 12.2417 13C12.2417 13.8975 12.9692 14.625 13.8667 14.625Z" stroke="#121212" stroke-width="2" stroke-miterlimit="10"/>
<path d="M19.4917 14.625C20.3892 14.625 21.1167 13.8975 21.1167 13C21.1167 12.1025 20.3892 11.375 19.4917 11.375C18.5942 11.375 17.8667 12.1025 17.8667 13C17.8667 13.8975 18.5942 14.625 19.4917 14.625Z" stroke="#121212" stroke-width="2" stroke-miterlimit="10"/>
<path d="M8.2417 14.625C9.13916 14.625 9.8667 13.8975 9.8667 13C9.8667 12.1025 9.13916 11.375 8.2417 11.375C7.34424 11.375 6.6167 12.1025 6.6167 13C6.6167 13.8975 7.34424 14.625 8.2417 14.625Z" stroke="#121212" stroke-width="2" stroke-miterlimit="10"/>
<path d="M25.8667 13C25.8667 6.375 20.4917 1 13.8667 1C7.2417 1 1.8667 6.375 1.8667 13C1.8667 19.625 7.2417 25 13.8667 25C20.4917 25 25.8667 19.625 25.8667 13Z" stroke="#121212" stroke-width="2" stroke-miterlimit="10"/>
</svg>
